<svg xmlns="http://www.w3.org/2000/svg" xmlns:xlink="http://www.w3.org/1999/xlink" width="2000.541" height="1489.538" viewBox="0 0 2000.541 1489.538">
  <defs>
    <linearGradient id="linear-gradient" x1="0.14" y1="0.07" x2="0.866" y2="0.929" gradientUnits="objectBoundingBox">
      <stop offset="0" stop-color="#c9f2ef"/>
      <stop offset="0.495" stop-color="#8784e9"/>
      <stop offset="0.746" stop-color="#654ce6"/>
      <stop offset="1" stop-color="#4314e2"/>
    </linearGradient>
    <linearGradient id="linear-gradient-2" x1="1.036" y1="0.807" x2="-0.192" y2="0.109" gradientUnits="objectBoundingBox">
      <stop offset="0" stop-color="#3f85e3"/>
      <stop offset="0.649" stop-color="#471fcd"/>
      <stop offset="1" stop-color="#839cf8"/>
    </linearGradient>
    <filter id="Path_8" x="607.749" y="22.603" width="328.948" height="570.793" filterUnits="userSpaceOnUse">
      <feOffset dy="1" input="SourceAlpha"/>
      <feGaussianBlur stdDeviation="0.5" result="blur"/>
      <feFlood flood-color="#3386c7"/>
      <feComposite operator="in" in2="blur"/>
      <feComposite in="SourceGraphic"/>
    </filter>
    <linearGradient id="linear-gradient-3" y1="0.023" x2="1.156" y2="1.081" gradientUnits="objectBoundingBox">
      <stop offset="0" stop-color="#004ed4"/>
      <stop offset="0.536" stop-color="#25bdb9" stop-opacity="0.69"/>
      <stop offset="0.818" stop-color="#289f9a"/>
      <stop offset="1" stop-color="#072b23" stop-opacity="0.569"/>
    </linearGradient>
    <filter id="Path_10" x="501.574" y="582.38" width="330.13" height="735.29" filterUnits="userSpaceOnUse">
      <feOffset dy="-1" input="SourceAlpha"/>
      <feGaussianBlur stdDeviation="1" result="blur-2"/>
      <feFlood flood-color="#288acb"/>
      <feComposite operator="in" in2="blur-2"/>
      <feComposite in="SourceGraphic"/>
    </filter>
    <linearGradient id="linear-gradient-4" x1="0.815" y1="-0.073" x2="0.174" y2="1.086" gradientUnits="objectBoundingBox">
      <stop offset="0" stop-color="#70f9de"/>
      <stop offset="1" stop-color="#002f80"/>
    </linearGradient>
    <filter id="Path_7" x="0" y="0" width="849.981" height="1423.143" filterUnits="userSpaceOnUse">
      <feOffset dy="1" input="SourceAlpha"/>
      <feGaussianBlur stdDeviation="1" result="blur-3"/>
      <feFlood flood-color="#61ddd1"/>
      <feComposite operator="in" in2="blur-3"/>
      <feComposite in="SourceGraphic"/>
    </filter>
    <linearGradient id="linear-gradient-5" x1="0.185" y1="1.073" x2="0.891" y2="0.044" gradientUnits="objectBoundingBox">
      <stop offset="0" stop-color="#96f9e5"/>
      <stop offset="0.509" stop-color="#4cd4d7"/>
      <stop offset="1" stop-color="#94abff"/>
    </linearGradient>
    <filter id="Path_9" x="602.704" y="229.035" width="753.455" height="1148.368" filterUnits="userSpaceOnUse">
      <feOffset dx="-1" dy="-1" input="SourceAlpha"/>
      <feGaussianBlur stdDeviation="1" result="blur-4"/>
      <feFlood flood-color="#82efe1"/>
      <feComposite operator="in" in2="blur-4"/>
      <feComposite in="SourceGraphic"/>
    </filter>
  </defs>
  <g id="Group_8" data-name="Group 8" transform="translate(37.809 20.317)">
    <g id="Path_12" data-name="Path 12" transform="translate(0 -9)" opacity="0.67" fill="url(#linear-gradient)">
      <path d="M 1816.476928710938 1477.720947265625 C 1805.750732421875 1477.7216796875 1794.7607421875 1476.869995117188 1783.812622070313 1475.18994140625 C 1776.934326171875 1474.134521484375 1769.807373046875 1472.3544921875 1762.630004882813 1469.899291992188 C 1755.76025390625 1467.549072265625 1748.661499023438 1464.51806640625 1741.53125 1460.890258789063 C 1728.255981445313 1454.1357421875 1714.38427734375 1445.069091796875 1700.301147460938 1433.941650390625 C 1676.565673828125 1415.187866210938 1651.802856445313 1390.312866210938 1626.70068359375 1360.008056640625 C 1616.836181640625 1348.099243164063 1606.8955078125 1335.313354492188 1597.154296875 1322.005249023438 C 1589.360717773438 1311.358154296875 1581.676635742188 1300.3544921875 1574.31591796875 1289.300659179688 C 1561.782104492188 1270.478759765625 1554.438110351563 1257.873779296875 1554.365478515625 1257.748779296875 L 1554.357421875 1257.734985351563 L 1554.3486328125 1257.721923828125 C 1554.294067382813 1257.640502929688 1548.776733398438 1249.444580078125 1538.182861328125 1237.367431640625 C 1531.964111328125 1230.27783203125 1525.235473632813 1223.253784179688 1518.184326171875 1216.490478515625 C 1509.370727539063 1208.03662109375 1500.025024414063 1199.968627929688 1490.40673828125 1192.510009765625 C 1465.921875 1173.523071289063 1439.544067382813 1158.323852539063 1412.005981445313 1147.334106445313 C 1395.653564453125 1140.808349609375 1378.705200195313 1135.7138671875 1361.631713867188 1132.19189453125 C 1352.45458984375 1130.299072265625 1343.059326171875 1128.823852539063 1333.707397460938 1127.807373046875 C 1323.930297851563 1126.744750976563 1313.928833007813 1126.154052734375 1303.98046875 1126.051635742188 C 1302.8662109375 1126.040283203125 1301.735229492188 1126.034545898438 1300.619018554688 1126.034545898438 C 1290.764770507813 1126.034545898438 1280.685913085938 1126.487182617188 1270.66259765625 1127.380004882813 C 1261.075439453125 1128.233764648438 1251.284301757813 1129.513061523438 1241.560913085938 1131.18212890625 C 1223.47265625 1134.287109375 1204.95361328125 1138.852416992188 1186.517578125 1144.751220703125 C 1155.472900390625 1154.6845703125 1124.087646484375 1168.534301757813 1093.233154296875 1185.916137695313 C 1081.112915039063 1192.744262695313 1069.046264648438 1200.140502929688 1057.368408203125 1207.899536132813 C 1048.026000976563 1214.10693359375 1038.910034179688 1220.559326171875 1030.273559570313 1227.0771484375 C 1015.564514160156 1238.178344726563 1007.235229492188 1245.724243164063 1007.152648925781 1245.79931640625 L 1007.120239257813 1245.8291015625 L 1007.093139648438 1245.86376953125 C 1007.041442871094 1245.930908203125 1001.790222167969 1252.700927734375 991.8435668945313 1262.668334960938 C 986.0021362304688 1268.521728515625 979.7083740234375 1274.31591796875 973.1369018554688 1279.890502929688 C 964.92333984375 1286.85791015625 956.25048828125 1293.49951171875 947.3590698242188 1299.630737304688 C 924.730224609375 1315.234497070313 900.56689453125 1327.667358398438 875.5402221679688 1336.584106445313 C 860.682861328125 1341.87744140625 845.3514404296875 1345.974243164063 829.972412109375 1348.760986328125 C 813.0559692382813 1351.826171875 795.6626586914063 1353.381225585938 778.2759399414063 1353.382568359375 C 778.2640380859375 1353.382568359375 778.2517700195313 1353.382568359375 778.2398071289063 1353.382568359375 C 776.275146484375 1353.382568359375 774.3536376953125 1353.36328125 772.366455078125 1353.323852539063 C 754.5352783203125 1352.97021484375 736.8788452148438 1351.062133789063 719.8871459960938 1347.652587890625 C 704.4412231445313 1344.553100585938 689.1968994140625 1340.1435546875 674.578369140625 1334.546875 C 649.9566650390625 1325.120239257813 626.6304931640625 1312.194580078125 605.2476196289063 1296.128051757813 C 596.846923828125 1289.816162109375 588.7300415039063 1282.99853515625 581.1219482421875 1275.864501953125 C 575.0359497070313 1270.157592773438 569.260498046875 1264.236938476563 563.9559936523438 1258.266845703125 C 554.9302368164063 1248.108520507813 550.3483276367188 1241.251220703125 550.3031005859375 1241.18310546875 L 550.2738037109375 1241.139038085938 L 550.2359619140625 1241.101928710938 C 550.212890625 1241.079467773438 547.88623046875 1238.81640625 543.8052368164063 1235.486450195313 C 540.0426635742188 1232.416381835938 533.9702758789063 1227.77978515625 526.4080810546875 1223.12548828125 C 517.9052734375 1217.89208984375 509.28955078125 1213.70263671875 500.8004760742188 1210.673828125 C 490.1778564453125 1206.88330078125 479.7235717773438 1204.909301757813 469.7285766601563 1204.806396484375 C 469.4647827148438 1204.803833007813 469.1964416503906 1204.802368164063 468.9312133789063 1204.802368164063 C 458.98193359375 1204.802368164063 447.8642883300781 1206.721923828125 435.8873901367188 1210.50732421875 C 426.3188171386719 1213.531616210938 416.1814575195313 1217.747802734375 405.7566833496094 1223.038330078125 C 388.6694030761719 1231.710083007813 376.3511352539063 1240.495483398438 375.3514099121094 1241.214965820313 L 0.5000144243240356 1364.095947265625 L 0.5000144243240356 0.5000016093254089 L 1962.23193359375 0.5000016093254089 L 1962.23193359375 1415.064086914063 C 1961.587036132813 1415.808959960938 1958.305786132813 1419.526245117188 1952.620483398438 1424.74267578125 C 1948.89453125 1428.16162109375 1944.880004882813 1431.5458984375 1940.688842773438 1434.801879882813 C 1935.450439453125 1438.871215820313 1929.919555664063 1442.750244140625 1924.249755859375 1446.330932617188 C 1909.820922851563 1455.44384765625 1894.416259765625 1462.704711914063 1878.463623046875 1467.91162109375 C 1868.993408203125 1471.003051757813 1859.221923828125 1473.3955078125 1849.420776367188 1475.022583007813 C 1838.639770507813 1476.812377929688 1827.555786132813 1477.72021484375 1816.476928710938 1477.720947265625 Z" stroke="none"/>
      <path d="M 1 1 L 1 1363.406005859375 L 375.1217041015625 1240.76416015625 C 375.76806640625 1240.30029296875 378.802490234375 1238.145141601563 383.52783203125 1235.140258789063 C 388.4381103515625 1232.01806640625 396.241455078125 1227.306640625 405.530517578125 1222.592407226563 C 415.979248046875 1217.28955078125 426.1422119140625 1213.063110351563 435.7364501953125 1210.03076171875 C 447.76220703125 1206.229736328125 458.9305419921875 1204.302368164063 468.930908203125 1204.302368164063 C 469.1898193359375 1204.302368164063 469.459716796875 1204.303833007813 469.7333984375 1204.306396484375 C 479.7843017578125 1204.410034179688 490.2933349609375 1206.393798828125 500.9686279296875 1210.202880859375 C 509.490234375 1213.243530273438 518.1375732421875 1217.448120117188 526.6702880859375 1222.69970703125 C 534.2557373046875 1227.368408203125 540.346923828125 1232.01953125 544.1212158203125 1235.09912109375 C 548.219482421875 1238.443115234375 550.490478515625 1240.651611328125 550.5849609375 1240.744018554688 L 550.6610107421875 1240.818115234375 L 550.719482421875 1240.90625 C 550.7647705078125 1240.974487304688 555.354248046875 1247.839111328125 564.3785400390625 1257.98974609375 C 569.6778564453125 1263.9501953125 575.4466552734375 1269.860717773438 581.5252685546875 1275.557373046875 C 589.1219482421875 1282.676635742188 597.2264404296875 1289.479736328125 605.613525390625 1295.77783203125 C 626.9559326171875 1311.804077148438 650.2357177734375 1324.697143554688 674.806396484375 1334.098876953125 C 689.392822265625 1339.68017578125 704.6031494140625 1344.077392578125 720.0145263671875 1347.168090820313 C 736.9678955078125 1350.568359375 754.5849609375 1352.47119140625 772.376220703125 1352.824096679688 C 774.365234375 1352.86328125 776.2950439453125 1352.882568359375 778.2760009765625 1352.882568359375 C 795.6285400390625 1352.882568359375 812.9874267578125 1351.332397460938 829.8707275390625 1348.275024414063 C 845.2197265625 1345.495239257813 860.521484375 1341.407836914063 875.3504638671875 1336.126220703125 C 900.3326416015625 1327.228149414063 924.4541015625 1314.819580078125 947.0447998046875 1299.244750976563 C 955.922607421875 1293.123779296875 964.5828857421875 1286.493286132813 972.7845458984375 1279.537109375 C 979.346923828125 1273.970947265625 985.6323852539063 1268.185302734375 991.4659423828125 1262.340209960938 C 1001.400512695313 1252.386474609375 1006.6455078125 1245.625244140625 1006.697387695313 1245.55810546875 L 1006.751220703125 1245.48828125 L 1006.816467285156 1245.429077148438 C 1006.899047851563 1245.35400390625 1015.245239257813 1237.792602539063 1029.972412109375 1226.677856445313 C 1038.61669921875 1220.154052734375 1047.740966796875 1213.695922851563 1057.091674804688 1207.483154296875 C 1068.779541015625 1199.717163085938 1080.856689453125 1192.314453125 1092.987548828125 1185.48046875 C 1123.871459960938 1168.082153320313 1155.288330078125 1154.218505859375 1186.365234375 1144.275024414063 C 1204.823120117188 1138.369018554688 1223.365234375 1133.79833984375 1241.476196289063 1130.689453125 C 1251.213134765625 1129.01806640625 1261.017822265625 1127.737182617188 1270.618408203125 1126.8818359375 C 1280.656494140625 1125.98779296875 1290.750244140625 1125.534545898438 1300.619140625 1125.534545898438 C 1301.739990234375 1125.534545898438 1302.87255859375 1125.540283203125 1303.985473632813 1125.551635742188 C 1313.9501953125 1125.654296875 1323.968139648438 1126.245971679688 1333.76123046875 1127.310302734375 C 1343.129150390625 1128.328369140625 1352.5400390625 1129.80615234375 1361.732666015625 1131.7021484375 C 1378.8349609375 1135.22998046875 1395.811767578125 1140.333129882813 1412.191162109375 1146.869506835938 C 1439.77294921875 1157.876708984375 1466.191162109375 1173.099487304688 1490.713134765625 1192.11474609375 C 1500.344970703125 1199.583984375 1509.7041015625 1207.663818359375 1518.5302734375 1216.129760742188 C 1525.591674804688 1222.90283203125 1532.330322265625 1229.937377929688 1538.55859375 1237.037841796875 C 1549.17333984375 1249.138793945313 1554.709106445313 1257.361938476563 1554.763793945313 1257.443603515625 L 1554.781494140625 1257.469970703125 L 1554.79736328125 1257.49755859375 C 1554.869995117188 1257.622314453125 1562.20166015625 1270.206176757813 1574.72412109375 1289.01171875 C 1582.080322265625 1300.05908203125 1589.759521484375 1311.05615234375 1597.54833984375 1321.697631835938 C 1607.283813476563 1334.998046875 1617.218627929688 1347.776611328125 1627.07666015625 1359.678344726563 C 1652.157592773438 1389.958862304688 1676.896240234375 1414.810913085938 1700.60546875 1433.544799804688 C 1714.66357421875 1444.653076171875 1728.50830078125 1453.702880859375 1741.755004882813 1460.443115234375 C 1748.864990234375 1464.060668945313 1755.942138671875 1467.082885742188 1762.790283203125 1469.425659179688 C 1769.940185546875 1471.871704101563 1777.038818359375 1473.644775390625 1783.888305664063 1474.695922851563 C 1794.807373046875 1476.371459960938 1805.771728515625 1477.220947265625 1816.476928710938 1477.220947265625 C 1827.523803710938 1477.220947265625 1838.575439453125 1476.316650390625 1849.3251953125 1474.533081054688 C 1859.09814453125 1472.91162109375 1868.841430664063 1470.52734375 1878.284790039063 1467.446411132813 C 1894.1943359375 1462.255981445313 1909.558349609375 1455.016845703125 1923.950073242188 1445.930908203125 C 1929.6064453125 1442.359741210938 1935.12451171875 1438.4912109375 1940.350708007813 1434.4326171875 C 1944.533081054688 1431.18505859375 1948.538818359375 1427.808837890625 1952.257202148438 1424.398315429688 C 1957.644165039063 1419.457275390625 1960.86865234375 1415.864013671875 1961.73193359375 1414.876831054688 L 1961.73193359375 1 L 1 1 M 0 0 L 1962.73193359375 0 L 1962.73193359375 1415.249267578125 C 1962.73193359375 1415.249267578125 1909.663818359375 1478.220947265625 1816.476928710938 1478.220947265625 C 1806.055297851563 1478.220947265625 1795.14404296875 1477.434692382813 1783.736694335938 1475.684326171875 C 1670.327880859375 1458.281860351563 1553.932861328125 1258 1553.932861328125 1258 C 1553.932861328125 1258 1467.03173828125 1128.229736328125 1303.975341796875 1126.551635742188 C 1302.860595703125 1126.540161132813 1301.730712890625 1126.534423828125 1300.618896484375 1126.534423828125 C 1139.084228515625 1126.534423828125 1007.489074707031 1246.169067382813 1007.489074707031 1246.169067382813 C 1007.489074707031 1246.169067382813 924.3848876953125 1353.882568359375 778.2760009765625 1353.882568359375 C 776.3057861328125 1353.882568359375 774.349609375 1353.86328125 772.3564453125 1353.823852539063 C 622.55810546875 1350.853271484375 549.88671875 1241.459716796875 549.88671875 1241.459716796875 C 549.88671875 1241.459716796875 513.299560546875 1205.755004882813 469.72314453125 1205.306396484375 C 469.4598388671875 1205.3037109375 469.19482421875 1205.302368164063 468.9310302734375 1205.302368164063 C 425.5362548828125 1205.302368164063 375.5809326171875 1241.666015625 375.5809326171875 1241.666015625 L 0 1364.7861328125 L 0 0 Z" stroke="none" fill="#707070"/>
    </g>
    <g transform="matrix(1, 0, 0, 1, -37.81, -20.32)" filter="url(#Path_8)" style="mix-blend-mode: overlay;isolation: isolate">
      <path id="Path_8-2" data-name="Path 8" d="M75.007,0s85.414,29.92,92.3,34.5,71.111,82.541,71.111,82.541L110.771,489.166,0,125.366,35.16,29.195Z" transform="matrix(1, 0.03, -0.03, 1, 661.62, 58.41)" fill="url(#linear-gradient-2)"/>
    </g>
    <g transform="matrix(1, 0, 0, 1, -37.81, -20.32)" filter="url(#Path_10)">
      <path id="Path_10-2" data-name="Path 10" d="M392.655,603.826s-55.332.576-68.318-8.266S221.359,439.138,221.359,439.138l113.8-528.594L509.488,349.022,461.963,548.035Z" transform="translate(301.22 693.84)" opacity="0.42" fill="url(#linear-gradient-3)"/>
    </g>
    <g transform="matrix(1, 0, 0, 1, -37.81, -20.32)" filter="url(#Path_7)" style="mix-blend-mode: overlay;isolation: isolate">
      <path id="Path_7-2" data-name="Path 7" d="M12.368,1401.428l370.738-135.912L591.818,393.849s24.817-173.754,73.813-240.36S790.35,122.873,790.35,122.873s-38.559-26.808-75.007-46.6-70.785-22.214-70.785-22.214S537.249,33.929,451.779,86.621c-64.188,39.572-92.949,78.326-114.462,121.662C331.985,219,308.7,275.112,308.7,275.112Z" transform="translate(23.63 -15.29)" fill="url(#linear-gradient-4)"/>
    </g>
    <g transform="matrix(1, 0, 0, 1, -37.81, -20.32)" filter="url(#Path_9)">
      <path id="Path_9-2" data-name="Path 9" d="M756.04,50.285,433.093,137.7,233.982,868.58s-23.675,145.691-70.417,201.539-118.981,8.324-118.981,8.324,36.785,39.824,71.556,56.416a204.122,204.122,0,0,0,67.529,18.626s102.371,16.882,183.909-27.3c61.235-33.181,88.673-65.675,109.2-102.012,5.086-8.988,18.626-47.362,18.626-47.362Z" transform="translate(580.12 200.75)" opacity="0.42" fill="url(#linear-gradient-5)"/>
    </g>
  </g>
</svg>
