<svg xmlns="http://www.w3.org/2000/svg" xmlns:xlink="http://www.w3.org/1999/xlink" width="526.649" height="132.099" viewBox="0 0 526.649 132.099">
  <defs>
    <linearGradient id="linear-gradient" x1="-0.019" y1="-0.094" x2="1.076" y2="0.926" gradientUnits="objectBoundingBox">
      <stop offset="0" stop-color="#064e8c"/>
      <stop offset="0.177" stop-color="#2e75f7"/>
      <stop offset="0.402" stop-color="#0a38d3"/>
      <stop offset="0.673" stop-color="#0f12b0"/>
      <stop offset="1" stop-color="#070359"/>
    </linearGradient>
    <filter id="Differenzmenge_4" x="23.521" y="0" width="57" height="62.922" filterUnits="userSpaceOnUse">
      <feOffset dx="3" dy="3" input="SourceAlpha"/>
      <feGaussianBlur stdDeviation="1.5" result="blur"/>
      <feFlood flood-color="#578cf1" flood-opacity="0.161"/>
      <feComposite operator="in" in2="blur"/>
      <feComposite in="SourceGraphic"/>
    </filter>
    <linearGradient id="linear-gradient-2" x1="0.655" y1="0.073" x2="-0.02" y2="0.792" gradientUnits="objectBoundingBox">
      <stop offset="0" stop-color="#94abff"/>
      <stop offset="0.489" stop-color="#3457d9"/>
      <stop offset="1" stop-color="#091232"/>
    </linearGradient>
    <filter id="Differenzmenge_1" x="0" y="29.583" width="77.234" height="88.648" filterUnits="userSpaceOnUse">
      <feOffset dx="1" dy="1" input="SourceAlpha"/>
      <feGaussianBlur stdDeviation="1.5" result="blur-2"/>
      <feFlood flood-color="#578cf1"/>
      <feComposite operator="in" in2="blur-2"/>
      <feComposite in="SourceGraphic"/>
    </filter>
    <linearGradient id="linear-gradient-3" x1="0.821" y1="0.963" x2="0.296" y2="-0.103" gradientUnits="objectBoundingBox">
      <stop offset="0" stop-color="#18b2ea"/>
      <stop offset="0.382" stop-color="#4920d3"/>
      <stop offset="0.589" stop-color="#190566"/>
      <stop offset="1" stop-color="#030a15"/>
    </linearGradient>
    <filter id="Differenzmenge_2" x="38.246" y="38.208" width="108.381" height="93.892" filterUnits="userSpaceOnUse">
      <feOffset dx="2" input="SourceAlpha"/>
      <feGaussianBlur stdDeviation="1.5" result="blur-3"/>
      <feFlood flood-color="#208de1" flood-opacity="0.42"/>
      <feComposite operator="in" in2="blur-3"/>
      <feComposite in="SourceGraphic"/>
    </filter>
    <linearGradient id="linear-gradient-4" x1="-0.019" y1="1.094" x2="0.851" y2="0.161" gradientUnits="objectBoundingBox">
      <stop offset="0" stop-color="#064e8c"/>
      <stop offset="0.581" stop-color="#0a38d3"/>
      <stop offset="1" stop-color="#100aa9"/>
    </linearGradient>
    <filter id="Differenzmenge_3" x="72.86" y="0.158" width="49.255" height="53.356" filterUnits="userSpaceOnUse">
      <feOffset dx="1" dy="2" input="SourceAlpha"/>
      <feGaussianBlur stdDeviation="1.5" result="blur-4"/>
      <feFlood flood-color="#0a38d3" flood-opacity="0.161"/>
      <feComposite operator="in" in2="blur-4"/>
      <feComposite in="SourceGraphic"/>
    </filter>
  </defs>
  <g id="Gruppe_3" data-name="Gruppe 3" transform="translate(-158.777 -340.925)">
    <g id="Gruppe_2" data-name="Gruppe 2" transform="translate(162.277 342.425)">
      <g transform="matrix(1, 0, 0, 1, -3.5, -1.5)" filter="url(#Differenzmenge_4)">
        <path id="Differenzmenge_4-2" data-name="Differenzmenge 4" d="M45.083,23.1h0l-.01-.011-.011-.012C36.538,13.444,22.883,7.918,7.6,7.918a43.113,43.113,0,0,0-4.556.462c-.615.082-1.195.16-1.655.213C.463,4.368-.122,1.513.022,1.312A.024.024,0,0,1,.038,1.3,21.342,21.342,0,0,0,2.816.708,16.86,16.86,0,0,1,6.856,0,69.639,69.639,0,0,1,30.791,3.884a46.315,46.315,0,0,1,19.077,12.75l-4.5,6.211-.284.256Z" transform="translate(25.02 41.84) rotate(-54)" fill="url(#linear-gradient)"/>
      </g>
      <g transform="matrix(1, 0, 0, 1, -3.5, -1.5)" filter="url(#Differenzmenge_1)">
        <path id="Differenzmenge_1-2" data-name="Differenzmenge 1" d="M5.712,74.412a.72.72,0,0,1-.558-.223,21.4,21.4,0,0,1-1.8-4.011A60.52,60.52,0,0,1,.926,61,54.994,54.994,0,0,1,0,51.149,56.385,56.385,0,0,1,8.59,21.134,57.527,57.527,0,0,1,31.093.5C31.38.35,31.739.17,32.079,0a.036.036,0,0,1,.015,0,.015.015,0,0,1,.013.006,2.526,2.526,0,0,1-.2.762c-.522,1.643-1.743,5.489-.867,9.4a48.475,48.475,0,0,0-21.32,52.3c-.5.183-.96.367-1.37.549-.776.344-.921,2.325-.663,4.105a8.584,8.584,0,0,0,.193.9,12.873,12.873,0,0,1,.3,1.47,5.67,5.67,0,0,1,0,2.119C7.758,73.54,6.482,74.412,5.712,74.412Z" transform="translate(3.5 51.04) rotate(-34)" fill="url(#linear-gradient-2)"/>
      </g>
      <g transform="matrix(1, 0, 0, 1, -3.5, -1.5)" filter="url(#Differenzmenge_2)">
        <path id="Differenzmenge_2-2" data-name="Differenzmenge 2" d="M18.364,0a.088.088,0,0,0-.06.023,54.56,54.56,0,0,0-13.355,18A54.263,54.263,0,0,0,8.379,69.7,55.23,55.23,0,0,0,30.24,89.5a1.1,1.1,0,0,0,.483.139c.357,0,.55-.3.772-.656.056-.088.113-.179.177-.271a1.942,1.942,0,0,1,1.764-.927,5.223,5.223,0,0,1,1.475.255,3.444,3.444,0,0,0,.961.145,3.748,3.748,0,0,0,1.938-.645l.024-.014a3.594,3.594,0,0,1,1.847-.632,3,3,0,0,1,.847.129,6.1,6.1,0,0,0,1.693.263,2.885,2.885,0,0,0,1.82-.5l.048-.305A46.9,46.9,0,0,1,22.414,6.59a32.077,32.077,0,0,1-1.684-2.9L20.6,3.453C19.574,1.564,18.7,0,18.364,0Z" transform="matrix(-0.53, -0.85, 0.85, -0.53, 64.11, 127.6)" fill="url(#linear-gradient-3)"/>
      </g>
      <g transform="matrix(1, 0, 0, 1, -3.5, -1.5)" filter="url(#Differenzmenge_3)">
        <path id="Differenzmenge_3-2" data-name="Differenzmenge 3" d="M34.369,0C26.737,7.795,17.86,11.747,7.986,11.747a34.783,34.783,0,0,1-3.706-.379c-.614-.083-1.193-.161-1.6-.2s-.845-.091-1.264-.146a45.245,45.245,0,0,0-1.4,6.352.019.019,0,0,0,.013.009c.5.058,1.182.156,1.97.27a48.373,48.373,0,0,0,5.386.592,46.066,46.066,0,0,0,10.03-1.1,45.639,45.639,0,0,0,9.272-3.151,46.249,46.249,0,0,0,8.284-4.97,47.026,47.026,0,0,0,7.067-6.557L34.369,0Z" transform="matrix(-0.62, -0.79, 0.79, -0.62, 102.24, 47.01)" fill="url(#linear-gradient-4)"/>
      </g>
      <path id="Pfad_11" data-name="Pfad 11" d="M51.016,0A67.055,67.055,0,0,1,33.838,29.552C20.346,42.883,0,44.9,0,44.9s21.334-1.47,34.827-14.8A60.278,60.278,0,0,0,51.016,0Z" transform="translate(71.633 55.659) rotate(173)" fill="#fff"/>
    </g>
    <text id="ceans_DigiNett" data-name="ceans DigiNett" transform="translate(302.426 426.218)" fill="#070b55" font-size="60" font-family="Tahoma"><tspan x="0" y="0">ceans DigiNett</tspan></text>
  </g>
</svg>
