<svg xmlns="http://www.w3.org/2000/svg" xmlns:xlink="http://www.w3.org/1999/xlink" width="130" height="108.149" viewBox="0 0 130 108.149">
  <defs>
    <linearGradient id="linear-gradient" x1="0.5" x2="0.5" y2="1" gradientUnits="objectBoundingBox">
      <stop offset="0" stop-color="#8f8eea"/>
      <stop offset="1" stop-color="#a2c5ec"/>
    </linearGradient>
    <filter id="Pfad_19" x="40.318" y="64.775" width="48.529" height="43.374" filterUnits="userSpaceOnUse">
      <feOffset dx="1" dy="1" input="SourceAlpha"/>
      <feGaussianBlur stdDeviation="1" result="blur"/>
      <feFlood flood-opacity="0.161"/>
      <feComposite operator="in" in2="blur"/>
      <feComposite in="SourceGraphic"/>
    </filter>
    <filter id="Differenzmenge_5" x="0" y="0" width="130" height="84" filterUnits="userSpaceOnUse">
      <feOffset dx="1" dy="1" input="SourceAlpha"/>
      <feGaussianBlur stdDeviation="1" result="blur-2"/>
      <feFlood flood-opacity="0.161"/>
      <feComposite operator="in" in2="blur-2"/>
      <feComposite in="SourceGraphic"/>
    </filter>
  </defs>
  <g id="Gruppe_8" data-name="Gruppe 8" transform="translate(-350.5 -2780.426)">
    <g transform="matrix(1, 0, 0, 1, 350.5, 2780.43)" filter="url(#Pfad_19)">
      <path id="Pfad_19-2" data-name="Pfad 19" d="M2.376,0H26.768s14.567,26.015,6.776,33.875c-3.943,3.977-11.615,3.508-19.651,3.456C6.854,37.289-.55,37.758-4.4,33.875-12.191,26.015,2.376,0,2.376,0Z" transform="translate(49.01 66.77)" fill="url(#linear-gradient)"/>
    </g>
    <g transform="matrix(1, 0, 0, 1, 350.5, 2780.43)" filter="url(#Differenzmenge_5)">
      <g id="Differenzmenge_5-2" data-name="Differenzmenge 5" transform="translate(2072 2)" fill="url(#linear-gradient)">
        <path d="M -1954 77.50030517578125 L -2062 77.50030517578125 C -2066.135498046875 77.50030517578125 -2069.5 74.13577270507813 -2069.5 70.00020599365234 L -2069.5 8.000102996826172 C -2069.5 3.864535808563232 -2066.135498046875 0.5000025629997253 -2062 0.5000025629997253 L -1954 0.5000025629997253 C -1949.864379882813 0.5000025629997253 -1946.499877929688 3.864535808563232 -1946.499877929688 8.000102996826172 L -1946.499877929688 70.00020599365234 C -1946.499877929688 74.13577270507813 -1949.864379882813 77.50030517578125 -1954 77.50030517578125 Z M -2060.000244140625 5.500302791595459 C -2063.03271484375 5.500302791595459 -2065.499755859375 7.967369079589844 -2065.499755859375 10.9998025894165 L -2065.499755859375 55.99980163574219 C -2065.499755859375 59.03273773193359 -2063.03271484375 61.50020217895508 -2060.000244140625 61.50020217895508 L -1955.999755859375 61.50020217895508 C -1952.96728515625 61.50020217895508 -1950.500244140625 59.03273773193359 -1950.500244140625 55.99980163574219 L -1950.500244140625 10.9998025894165 C -1950.500244140625 7.967369079589844 -1952.96728515625 5.500302791595459 -1955.999755859375 5.500302791595459 L -2060.000244140625 5.500302791595459 Z" stroke="none"/>
        <path d="M -1954 77.00030517578125 C -1950.14013671875 77.00030517578125 -1946.999877929688 73.86006927490234 -1946.999877929688 70.00020599365234 L -1946.999877929688 8.000102996826172 C -1946.999877929688 4.140235900878906 -1950.14013671875 1.00000262260437 -1954 1.00000262260437 L -2062 1.00000262260437 C -2065.85986328125 1.00000262260437 -2069 4.140235900878906 -2069 8.000102996826172 L -2069 70.00020599365234 C -2069 73.86006927490234 -2065.85986328125 77.00030517578125 -2062 77.00030517578125 L -1954 77.00030517578125 M -2060.000244140625 5.000302791595459 L -1955.999755859375 5.000302791595459 C -1952.691650390625 5.000302791595459 -1950.000244140625 7.691669464111328 -1950.000244140625 10.9998025894165 L -1950.000244140625 55.99980163574219 C -1950.000244140625 59.30843734741211 -1952.691650390625 62.00020217895508 -1955.999755859375 62.00020217895508 L -2060.000244140625 62.00020217895508 C -2063.308349609375 62.00020217895508 -2065.999755859375 59.30843734741211 -2065.999755859375 55.99980163574219 L -2065.999755859375 10.9998025894165 C -2065.999755859375 7.691669464111328 -2063.308349609375 5.000302791595459 -2060.000244140625 5.000302791595459 M -1954 78.00030517578125 L -2062 78.00030517578125 C -2066.4111328125 78.00030517578125 -2070 74.41148376464844 -2070 70.00020599365234 L -2070 8.000102996826172 C -2070 3.588835954666138 -2066.4111328125 2.587890548966243e-06 -2062 2.587890548966243e-06 L -1954 2.587890548966243e-06 C -1949.588745117188 2.587890548966243e-06 -1945.999877929688 3.588835954666138 -1945.999877929688 8.000102996826172 L -1945.999877929688 70.00020599365234 C -1945.999877929688 74.41148376464844 -1949.588745117188 78.00030517578125 -1954 78.00030517578125 Z M -2060.000244140625 6.000302791595459 C -2062.757080078125 6.000302791595459 -2064.999755859375 8.243069648742676 -2064.999755859375 10.9998025894165 L -2064.999755859375 55.99980163574219 C -2064.999755859375 58.75703430175781 -2062.757080078125 61.00020217895508 -2060.000244140625 61.00020217895508 L -1955.999755859375 61.00020217895508 C -1953.243041992188 61.00020217895508 -1951.000244140625 58.75703430175781 -1951.000244140625 55.99980163574219 L -1951.000244140625 10.9998025894165 C -1951.000244140625 8.243069648742676 -1953.243041992188 6.000302791595459 -1955.999755859375 6.000302791595459 L -2060.000244140625 6.000302791595459 Z" stroke="none" fill="#fff"/>
      </g>
    </g>
  </g>
</svg>
